<?xml version="1.0" standalone="no"?>
<svg xmlns:xlink="http://www.w3.org/1999/xlink" id="wave" style="transform:rotate(0deg); transition: 0.3s" viewBox="0 0 1440 490" version="1.1" xmlns="http://www.w3.org/2000/svg"><defs><linearGradient id="sw-gradient-0" x1="0" x2="0" y1="1" y2="0"><stop stop-color="rgba(12, 188, 135, 1)" offset="0%"/><stop stop-color="rgba(27.193, 246.213, 180.258, 1)" offset="100%"/></linearGradient></defs><path style="transform:translate(0, 0px); opacity:1" fill="url(#sw-gradient-0)" d="M0,196L80,163.3C160,131,320,65,480,32.7C640,0,800,0,960,49C1120,98,1280,196,1440,212.3C1600,229,1760,163,1920,179.7C2080,196,2240,294,2400,343C2560,392,2720,392,2880,400.2C3040,408,3200,425,3360,408.3C3520,392,3680,343,3840,343C4000,343,4160,392,4320,359.3C4480,327,4640,212,4800,212.3C4960,212,5120,327,5280,367.5C5440,408,5600,376,5760,367.5C5920,359,6080,376,6240,392C6400,408,6560,425,6720,392C6880,359,7040,278,7200,277.7C7360,278,7520,359,7680,334.8C7840,310,8000,180,8160,122.5C8320,65,8480,82,8640,114.3C8800,147,8960,196,9120,220.5C9280,245,9440,245,9600,277.7C9760,310,9920,376,10080,343C10240,310,10400,180,10560,122.5C10720,65,10880,82,11040,89.8C11200,98,11360,98,11440,98L11520,98L11520,490L11440,490C11360,490,11200,490,11040,490C10880,490,10720,490,10560,490C10400,490,10240,490,10080,490C9920,490,9760,490,9600,490C9440,490,9280,490,9120,490C8960,490,8800,490,8640,490C8480,490,8320,490,8160,490C8000,490,7840,490,7680,490C7520,490,7360,490,7200,490C7040,490,6880,490,6720,490C6560,490,6400,490,6240,490C6080,490,5920,490,5760,490C5600,490,5440,490,5280,490C5120,490,4960,490,4800,490C4640,490,4480,490,4320,490C4160,490,4000,490,3840,490C3680,490,3520,490,3360,490C3200,490,3040,490,2880,490C2720,490,2560,490,2400,490C2240,490,2080,490,1920,490C1760,490,1600,490,1440,490C1280,490,1120,490,960,490C800,490,640,490,480,490C320,490,160,490,80,490L0,490Z"/></svg>